# xmcd
#
# Track frame offsets: 
#        150
#        27398
#        52673
#        86125
#        111197
#        149231
#        172845
#        196738
#        232375
#        264552
#        293027
#
# Disc length: 4394 seconds
#
# Revision: 0
# Processed by: cddbd v1.5.2PL0 Copyright (c) Steve Scherf et al.
# Submitted via: ExactAudioCopy v0.95b4
#
DISCID=9f11280b
DTITLE=Various Artist - House 17
DYEAR=1900
DGENRE=
TTITLE0=Celine Dion - My heart goes on (freestyle mix)
TTITLE1=Sash feat. Boney M - Ma Baker (dub mix)
TTITLE2=and Tom - It´s a dream
TTITLE3=Woody van Eyden - Time now
TTITLE4=Timefrog - Unendlichkeit
TTITLE5=Squeezer - Without you
TTITLE6=Klubbheads - Kicking hard
TTITLE7=Bossi - Time to make the floor burn
TTITLE8=Daman van Thorn - Loose my mind
TTITLE9=Mellow Trax - Phuture vibes
TTITLE10=Kaylab - Phantom of the club
EXTD=
EXTT0=
EXTT1=
EXTT2=
EXTT3=
EXTT4=
EXTT5=
EXTT6=
EXTT7=
EXTT8=
EXTT9=
EXTT10=
PLAYORDER=
